<svg width="40" height="40" viewBox="0 0 40 40" fill="none" xmlns="http://www.w3.org/2000/svg">
<path fill-rule="evenodd" clip-rule="evenodd" d="M3.875 6C2.81299 6 2 6.81299 2 7.875V32.25C2 33.6245 3.12549 34.75 4.5 34.75C4.5 34.75 34.25 34.75 34.75 34.75C37 34.75 37 33.75 37 32.75V13.5V12.25V11.625C37 10.563 36.187 9.75 35.125 9.75H19.312C18.8115 9.75 18.3745 9.56201 17.9985 9.18604L15.689 6.87646C15.125 6.3125 14.312 6 13.5015 6H3.875ZM3.875 7.25H13.5015C13.9995 7.25 14.4365 7.43799 14.8125 7.81396L17.1245 10.1235C17.686 10.6875 18.499 11 19.312 11H35.125C35.501 11 35.75 11.249 35.75 11.625V27.25H11.375C11.0298 27.25 10.75 27.5298 10.75 27.875C10.75 28.2202 11.0298 28.5 11.375 28.5H35.75V32.25V33.5H4.5C3.81152 33.5 3.25 32.9385 3.25 32.25V28.5V27.25V7.875C3.25 7.49902 3.49902 7.25 3.875 7.25ZM7.625 14.75C7.24902 14.75 7 14.999 7 15.375C7 15.751 7.24902 16 7.625 16H17C17.376 16 17.625 15.751 17.625 15.375C17.625 14.999 17.376 14.75 17 14.75H7.625ZM7.625 17.25C7.24902 17.25 7 17.499 7 17.875C7 18.251 7.24902 18.5 7.625 18.5H13.125C13.501 18.5 13.75 18.251 13.75 17.875C13.75 17.499 13.501 17.25 13.125 17.25H7.625Z" fill="white"/>
</svg>
