<svg width="32" height="32" viewBox="0 0 32 32" fill="none" xmlns="http://www.w3.org/2000/svg">
<path d="M28.0005 8C27.9992 7.89804 27.9824 7.79687 27.9505 7.7L27.8905 7.59C27.8567 7.51762 27.8129 7.4503 27.7605 7.39L27.6705 7.31C27.614 7.25473 27.55 7.2076 27.4805 7.17H27.3705C27.2601 7.08856 27.1342 7.03069 27.0005 7H5.00049C4.88057 7.00216 4.76201 7.02587 4.65049 7.07H4.54049C4.47095 7.1076 4.407 7.15473 4.35049 7.21L4.26049 7.29C4.20807 7.3503 4.16432 7.41762 4.13049 7.49L4.07049 7.6C4.02004 7.72714 3.99622 7.86328 4.00049 8V24C4.00049 24.2652 4.10584 24.5196 4.29338 24.7071C4.48092 24.8946 4.73527 25 5.00049 25H27.0005C27.2657 25 27.5201 24.8946 27.7076 24.7071C27.8951 24.5196 28.0005 24.2652 28.0005 24V8ZM27.0005 8L16.0005 16L5.00049 8H27.0005ZM5.00049 24V9.24L15.4105 16.81C15.5817 16.9351 15.7884 17.0026 16.0005 17.0026C16.2126 17.0026 16.4192 16.9351 16.5905 16.81L27.0005 9.24V24H5.00049Z" fill="black"/>
</svg>
